<mxfile host="app.diagrams.net" modified="2024-01-22T05:34:17.643Z" agent="Mozilla/5.0 (Windows NT 10.0; Win64; x64) AppleWebKit/537.36 (KHTML, like Gecko) Chrome/114.0.0.0 Safari/537.36" version="22.1.18" etag="owSea97bbmWPQ_HgnY04" type="github">
  <diagram name="第 1 页" id="nrf-OWKnsDAIsAzLqT8H">
    <mxGraphModel>
      <root>
        <mxCell id="0" />
        <mxCell id="1" parent="0" />
      </root>
    </mxGraphModel>
  </diagram>
</mxfile>
